<?xml version="1.0" encoding="utf-8"?>
<!-- Generator: Adobe Illustrator 15.0.0, SVG Export Plug-In . SVG Version: 6.00 Build 0)  -->
<!DOCTYPE svg PUBLIC "-//W3C//DTD SVG 1.1//EN" "http://www.w3.org/Graphics/SVG/1.1/DTD/svg11.dtd">
<svg version="1.1" id="Layer_1" xmlns="http://www.w3.org/2000/svg" xmlns:xlink="http://www.w3.org/1999/xlink" x="0px" y="0px"
	 width="600px" height="600px" viewBox="0 0 600 600" enable-background="new 0 0 600 600" xml:space="preserve">
<path stroke="#000000" stroke-width="25" stroke-linecap="round" stroke-linejoin="round" d="M300.2,74.12
	c-35.118-9.425-52.126-9.633-62.519-9.287c-10.4,0.349-14.187,1.244-17.526,4.038c-3.345,2.785-6.238,7.462-6.785,14.062
	c-0.556,6.593,1.232,15.102,1.606,22.655c0.383,7.552-0.647,14.144-4.729,19.503c-4.08,5.359-11.214,9.48-22.557,9.411
	c-11.336,0.069-18.472-4.052-22.553-9.411c-4.078-5.36-5.102-11.951-4.726-19.503c0.379-7.553,2.162-16.062,1.611-22.655
	c-0.546-6.6-3.441-11.277-6.784-14.062c-3.339-2.794-7.126-3.689-17.527-4.038c-10.4-0.347-27.401-0.139-62.524,9.287
	c9.43,35.052,9.64,52.028,9.294,62.409c-0.339,10.386-1.243,14.166-4.034,17.498c-2.797,3.342-7.481,6.232-14.092,6.775
	c-6.604,0.557-15.13-1.231-22.694-1.601c-7.564-0.383-14.167,0.648-19.533,4.713c-5.36,4.083-9.496,11.208-9.426,22.528
	c-0.069,11.312,4.066,18.448,9.426,22.51c5.366,4.08,11.969,5.103,19.533,4.733c7.564-0.382,16.09-2.166,22.694-1.608
	c6.612,0.538,11.294,3.435,14.092,6.776c2.792,3.324,3.695,7.104,4.034,17.495c0.346,10.376,0.137,27.362-9.294,62.422
	c35.124,9.415,52.124,9.622,62.524,9.282c10.401-0.35,14.188-1.255,17.527-4.039c3.343-2.782,6.237-7.471,6.784-14.062
	c0.551-6.596-1.232-15.114-1.611-22.667c-0.375-7.543,0.648-14.132,4.726-19.492c4.082-5.36,11.217-9.492,22.553-9.423
	c11.342-0.069,18.478,4.063,22.557,9.423c4.081,5.36,5.111,11.948,4.729,19.492c-0.374,7.553-2.162,16.071-1.606,22.667
	c0.547,6.591,3.441,11.279,6.785,14.062c3.339,2.784,7.125,3.689,17.526,4.039c10.391,0.34,27.4,0.133,62.519-9.282
	c-9.434-35.06-9.634-52.046-9.294-62.422c0.345-10.391,1.249-14.171,4.043-17.495c2.788-3.341,7.479-6.239,14.085-6.776
	c6.611-0.558,15.13,1.226,22.694,1.608c7.562,0.369,14.165-0.653,19.532-4.733c5.366-4.064,9.495-11.199,9.424-22.51
	c0.07-11.32-4.058-18.446-9.424-22.528c-5.367-4.065-11.97-5.095-19.532-4.713c-7.564,0.369-16.083,2.157-22.694,1.601
	c-6.605-0.543-11.297-3.433-14.085-6.775c-2.794-3.333-3.698-7.112-4.043-17.498C290.565,126.148,290.766,109.171,300.2,74.12z"/>
<path fill="none" stroke="#000000" stroke-width="25" stroke-linecap="round" stroke-linejoin="round" d="M75.182,298.934
	c-9.428,35.062-9.637,52.042-9.29,62.417c0.343,10.389,1.244,14.176,4.033,17.499c2.792,3.342,7.483,6.24,14.084,6.773
	c6.613,0.559,15.14-1.229,22.704-1.599c7.558-0.371,14.164,0.646,19.525,4.71c5.371,4.08,9.494,11.208,9.425,22.528
	c0.069,11.324-4.054,18.446-9.425,22.519c-5.361,4.073-11.967,5.096-19.525,4.726c-7.563-0.375-16.091-2.158-22.704-1.611
	c-6.601,0.542-11.293,3.429-14.084,6.771c-2.789,3.333-3.689,7.115-4.033,17.5c-0.347,10.388-0.139,27.354,9.29,62.428
	c35.124-9.419,52.124-9.631,62.523-9.281c10.401,0.348,14.188,1.231,17.528,4.025c3.343,2.798,6.237,7.474,6.785,14.073
	c0.55,6.593-1.231,15.105-1.612,22.656c-0.376,7.542,0.647,14.132,4.726,19.491c4.081,5.362,11.217,9.491,22.553,9.421
	c11.342,0.07,18.478-4.059,22.557-9.421c4.082-5.359,5.111-11.949,4.73-19.491c-0.375-7.551-2.162-16.063-1.607-22.656
	c0.548-6.6,3.441-11.275,6.784-14.073c3.341-2.794,7.127-3.678,17.528-4.025c10.391-0.35,27.399-0.139,62.518,9.281
	c9.436-35.073,9.643-52.04,9.297-62.428c-0.347-10.385-1.244-14.167-4.04-17.5c-2.794-3.342-7.478-6.229-14.089-6.771
	c-6.604-0.547-15.129,1.236-22.693,1.611c-7.567,0.37-14.167-0.652-19.537-4.726c-5.363-4.072-9.493-11.193-9.423-22.519
	c-0.07-11.32,4.06-18.449,9.423-22.528c5.37-4.063,11.97-5.081,19.537-4.71c7.562,0.37,16.089,2.157,22.693,1.599
	c6.612-0.533,11.295-3.432,14.089-6.773c2.796-3.323,3.692-7.11,4.04-17.499c0.346-10.375,0.139-27.354-9.297-62.417
	c-35.119,9.41-52.126,9.624-62.518,9.283c-10.401-0.347-14.188-1.254-17.528-4.039c-3.343-2.784-6.236-7.472-6.784-14.058
	c-0.555-6.605,1.231-15.106,1.607-22.673c0.382-7.539-0.648-14.13-4.73-19.491c-4.08-5.361-11.214-9.472-22.557-9.41
	c-11.336-0.062-18.472,4.049-22.553,9.41c-4.078,5.36-5.102,11.952-4.726,19.491c0.38,7.566,2.162,16.068,1.612,22.673
	c-0.548,6.586-3.442,11.274-6.785,14.058c-3.339,2.785-7.127,3.692-17.528,4.039C127.305,308.558,110.305,308.344,75.182,298.934z"
	/>
<path fill="none" stroke="#000000" stroke-width="25" stroke-linecap="round" stroke-linejoin="round" d="M300.357,74.12
	c-9.434,35.052-9.64,52.029-9.294,62.409c0.348,10.373,1.24,14.166,4.039,17.498c2.794,3.341,7.482,6.232,14.088,6.775
	c6.603,0.557,15.132-1.231,22.695-1.6c7.562-0.383,14.162,0.647,19.533,4.712c5.36,4.083,9.492,11.208,9.421,22.528
	c0.07,11.312-4.061,18.448-9.421,22.51c-5.371,4.08-11.97,5.103-19.533,4.733c-7.563-0.382-16.093-2.166-22.695-1.608
	c-6.605,0.538-11.294,3.435-14.088,6.776c-2.798,3.324-3.69,7.104-4.039,17.495c-0.346,10.376-0.14,27.362,9.294,62.422
	c35.118-9.419,52.12-9.627,62.516-9.279c10.4,0.348,14.189,1.244,17.535,4.028c3.335,2.793,6.229,7.473,6.787,14.07
	c0.55,6.587-1.232,15.104-1.616,22.646c-0.382,7.566,0.643,14.156,4.73,19.518c4.078,5.35,11.213,9.465,22.554,9.396
	c11.332,0.068,18.478-4.047,22.556-9.396c4.079-5.361,5.104-11.951,4.732-19.518c-0.386-7.541-2.173-16.059-1.617-22.646
	c0.556-6.595,3.445-11.276,6.788-14.07c3.335-2.784,7.133-3.68,17.525-4.028c10.4-0.349,27.411-0.14,62.525,9.279
	c9.425-35.061,9.636-52.046,9.296-62.422c-0.347-10.391-1.243-14.171-4.042-17.495c-2.793-3.341-7.484-6.239-14.087-6.776
	c-6.609-0.558-15.136,1.226-22.691,1.608c-7.564,0.369-14.166-0.653-19.537-4.733c-5.364-4.064-9.493-11.199-9.424-22.51
	c-0.068-11.32,4.06-18.446,9.424-22.528c5.37-4.065,11.973-5.095,19.537-4.713c7.557,0.369,16.082,2.157,22.691,1.601
	c6.601-0.543,11.294-3.434,14.087-6.775c2.799-3.333,3.693-7.125,4.042-17.498c0.34-10.38,0.13-27.357-9.296-62.409
	c-35.114,9.419-52.125,9.619-62.525,9.28c-10.393-0.348-14.19-1.253-17.525-4.037c-3.343-2.785-6.232-7.471-6.788-14.061
	c-0.556-6.602,1.231-15.106,1.617-22.673c0.373-7.539-0.653-14.132-4.732-19.492c-4.078-5.358-11.224-9.475-22.556-9.406
	c-11.341-0.069-18.476,4.047-22.554,9.406c-4.088,5.36-5.111,11.954-4.73,19.492c0.384,7.566,2.166,16.071,1.616,22.673
	c-0.559,6.59-3.451,11.276-6.787,14.061c-3.346,2.784-7.135,3.69-17.535,4.037C352.478,83.74,335.475,83.539,300.357,74.12z"/>
<path fill="none" stroke="#000000" stroke-width="25" stroke-linecap="round" stroke-linejoin="round" d="M524.459,297.793
	c-35.115-9.423-52.127-9.632-62.525-9.283c-10.39,0.347-14.187,1.247-17.524,4.032c-3.344,2.789-6.229,7.471-6.785,14.068
	c-0.558,6.589,1.228,15.107,1.612,22.648c0.375,7.565-0.651,14.151-4.729,19.51c-4.08,5.357-11.222,9.469-22.555,9.398
	c-11.341,0.07-18.477-4.041-22.556-9.398c-4.088-5.358-5.11-11.944-4.728-19.51c0.382-7.541,2.161-16.061,1.615-22.648
	c-0.559-6.597-3.453-11.279-6.788-14.068c-3.348-2.784-7.136-3.684-17.533-4.032c-10.398-0.349-27.401-0.14-62.52,9.283
	c9.435,35.063,9.642,52.029,9.298,62.42c-0.349,10.37-1.241,14.155-4.045,17.491c-2.79,3.342-7.482,6.217-14.082,6.775
	c-6.614,0.556-15.133-1.228-22.705-1.601c-7.554-0.386-14.156,0.632-19.523,4.711c-5.367,4.086-9.496,11.208-9.425,22.532
	c-0.07,11.312,4.058,18.447,9.425,22.504c5.366,4.09,11.97,5.104,19.523,4.723c7.572-0.383,16.091-2.149,22.705-1.608
	c6.599,0.558,11.292,3.449,14.082,6.773c2.804,3.339,3.695,7.121,4.045,17.506c0.344,10.386,0.137,27.353-9.298,62.423
	c35.118,9.41,52.121,9.62,62.52,9.271c10.397-0.348,14.186-1.238,17.533-4.024c3.335-2.783,6.229-7.473,6.788-14.072
	c0.546-6.591-1.233-15.108-1.615-22.659c-0.384-7.552,0.64-14.127,4.728-19.487c4.079-5.36,11.215-9.489,22.556-9.417
	c11.333-0.071,18.475,4.057,22.555,9.417c4.079,5.36,5.104,11.936,4.729,19.487c-0.385,7.551-2.17,16.069-1.612,22.659
	c0.556,6.6,3.441,11.289,6.785,14.072c3.338,2.786,7.135,3.677,17.524,4.024c10.398,0.349,27.409,0.14,62.525-9.271
	c-9.435-35.07-9.639-52.037-9.296-62.423c0.349-10.384,1.241-14.167,4.036-17.506c2.798-3.324,7.482-6.216,14.093-6.773
	c6.602-0.541,15.132,1.227,22.694,1.608c7.564,0.383,14.164-0.633,19.534-4.723c5.356-4.057,9.494-11.191,9.425-22.504
	c0.068-11.324-4.068-18.447-9.425-22.532c-5.37-4.079-11.97-5.099-19.534-4.711c-7.562,0.373-16.093,2.156-22.694,1.601
	c-6.61-0.559-11.295-3.434-14.093-6.775c-2.795-3.336-3.688-7.121-4.036-17.491C514.82,349.822,515.024,332.856,524.459,297.793z"/>
</svg>
